<?xml version="1.0" encoding="UTF-8"?>
<svg xmlns="http://www.w3.org/2000/svg" xmlns:xlink="http://www.w3.org/1999/xlink" width="15pt" height="15pt" viewBox="0 0 15 15" version="1.1">
<g id="surface553712">
<path style=" stroke:none;fill-rule:nonzero;fill:rgb(100%,100%,100%);fill-opacity:1;" d="M 1.5 0.601562 C 1.007812 0.601562 0.601562 1.007812 0.601562 1.5 L 0.601562 10.5 C 0.601562 10.992188 1.007812 11.398438 1.5 11.398438 L 5.699219 11.398438 L 5.699219 12 L 3 12 C 2.992188 12 2.980469 12 2.972656 12 C 2.890625 12.007812 2.816406 12.046875 2.765625 12.113281 L 1.265625 13.914062 C 1.191406 14.003906 1.179688 14.125 1.230469 14.230469 C 1.28125 14.335938 1.386719 14.398438 1.5 14.398438 L 13.5 14.398438 C 13.613281 14.398438 13.71875 14.335938 13.769531 14.230469 C 13.820312 14.125 13.808594 14.003906 13.734375 13.914062 L 12.234375 12.113281 C 12.175781 12.039062 12.089844 12 12 12 L 9.300781 12 L 9.300781 11.398438 L 13.5 11.398438 C 13.992188 11.398438 14.398438 10.992188 14.398438 10.5 L 14.398438 1.5 C 14.398438 1.007812 13.992188 0.601562 13.5 0.601562 Z M 1.5 1.199219 L 13.5 1.199219 C 13.667969 1.199219 13.800781 1.332031 13.800781 1.5 L 13.800781 10.5 C 13.800781 10.667969 13.667969 10.800781 13.5 10.800781 L 1.5 10.800781 C 1.332031 10.800781 1.199219 10.667969 1.199219 10.5 L 1.199219 1.5 C 1.199219 1.332031 1.332031 1.199219 1.5 1.199219 Z M 1.800781 1.800781 L 1.800781 10.199219 L 13.199219 10.199219 L 13.199219 1.800781 Z M 2.398438 2.398438 L 12.601562 2.398438 L 12.601562 9.601562 L 2.398438 9.601562 Z M 5.785156 3.382812 L 3.382812 5.785156 L 3.179688 6 L 3.382812 6.214844 L 5.785156 8.617188 L 6.214844 8.183594 L 4.03125 6 L 6.214844 3.816406 Z M 9.214844 3.382812 L 8.785156 3.816406 L 10.96875 6 L 8.785156 8.183594 L 9.214844 8.617188 L 11.617188 6.214844 L 11.820312 6 L 11.617188 5.785156 Z M 6.300781 11.398438 L 8.699219 11.398438 L 8.699219 12.601562 L 6.300781 12.601562 Z M 3.140625 12.601562 L 5.699219 12.601562 L 5.699219 13.199219 L 9.300781 13.199219 L 9.300781 12.601562 L 11.859375 12.601562 L 12.863281 13.800781 L 2.136719 13.800781 Z M 3.140625 12.601562 "/>
</g>
</svg>
