<?xml version="1.0" encoding="UTF-8"?>
<svg xmlns="http://www.w3.org/2000/svg" xmlns:xlink="http://www.w3.org/1999/xlink" width="96pt" height="96pt" viewBox="0 0 96 96" version="1.1">
<g id="surface613102">
<path style=" stroke:none;fill-rule:nonzero;fill:rgb(74.117647%,74.117647%,74.117647%);fill-opacity:1;" d="M 47.867188 4 L 6 18.570312 L 12.617188 72.816406 L 47.910156 92 L 83.386719 72.554688 L 90 18.3125 Z M 47.867188 4 "/>
<path style=" stroke:none;fill-rule:nonzero;fill:rgb(77.254902%,64.313725%,49.411765%);fill-opacity:1;" d="M 85.636719 21.054688 L 48 8.269531 L 48 87.390625 L 79.664062 70.035156 Z M 85.636719 21.054688 "/>
<path style=" stroke:none;fill-rule:nonzero;fill:rgb(77.254902%,64.313725%,49.411765%);fill-opacity:1;" d="M 47.882812 8.230469 L 10.363281 21.289062 L 16.335938 70.285156 L 47.902344 87.441406 L 48 87.390625 L 48 8.269531 Z M 47.882812 8.230469 "/>
<path style=" stroke:none;fill-rule:nonzero;fill:rgb(74.117647%,74.117647%,74.117647%);fill-opacity:1;" d="M 48 11.992188 L 48 31.007812 L 65.15625 68 L 73.972656 68 Z M 48 11.992188 "/>
<path style=" stroke:none;fill-rule:nonzero;fill:rgb(93.333333%,93.333333%,93.333333%);fill-opacity:1;" d="M 22.027344 68 L 30.84375 68 L 48 31.007812 L 48 11.992188 Z M 22.027344 68 "/>
<path style=" stroke:none;fill-rule:nonzero;fill:rgb(74.117647%,74.117647%,74.117647%);fill-opacity:1;" d="M 48 48 L 60 48 L 60 56 L 48 56 Z M 48 48 "/>
<path style=" stroke:none;fill-rule:nonzero;fill:rgb(93.333333%,93.333333%,93.333333%);fill-opacity:1;" d="M 36 48 L 48 48 L 48 56 L 36 56 Z M 36 48 "/>
</g>
</svg>
